<?xml version="1.0" encoding="UTF-8"?>
<svg width="179.507" height="80" 
viewBox="0 0 179.507 80" 
preserveAspectRatio="xMinYMin"
xmlns:xlink="http://www.w3.org/1999/xlink"
xmlns="http://www.w3.org/2000/svg">
<!-- Generated by PQINA - https://pqina.nl/ -->
<title></title>
<g transform="rotate(NaN 89.7535 40) translate(89.7535 40) scale(NaN) translate(-89.7535 -40) translate(0 0)">
<g transform="scale(1 1) translate(0 0)">
<svg xmlns="http://www.w3.org/2000/svg" xmlns:xlink="http://www.w3.org/1999/xlink" width="179.507" height="80" viewBox="0 0 179.507 80" style="overflow: visible;">
  <defs>
    <clipPath id="clip-path">
      <path id="Combined-Shape" d="M36.185,71.956a3.738,3.738,0,0,1,2.024.565,3.847,3.847,0,0,1,1.4,1.565,5.334,5.334,0,0,1-.013,4.53,4.042,4.042,0,0,1-1.426,1.609,3.829,3.829,0,0,1-2.056.6,3.716,3.716,0,0,1-2.012-.564A3.838,3.838,0,0,1,32.7,78.7a5.308,5.308,0,0,1,.014-4.523,4.048,4.048,0,0,1,1.419-1.6A3.872,3.872,0,0,1,36.185,71.956Zm83.659,0a3.747,3.747,0,0,1,2.027.565,3.836,3.836,0,0,1,1.4,1.565,4.969,4.969,0,0,1,.5,2.256,5.025,5.025,0,0,1-.512,2.274,4.05,4.05,0,0,1-1.426,1.609,3.826,3.826,0,0,1-2.055.6,3.725,3.725,0,0,1-2.016-.564,3.855,3.855,0,0,1-1.4-1.566,5.316,5.316,0,0,1,.012-4.523,4.059,4.059,0,0,1,1.418-1.6A3.881,3.881,0,0,1,119.844,71.956Zm25.557,0a4.628,4.628,0,0,1,1.129.138,4.745,4.745,0,0,1,.966.349h0l.082.041-.347.738-.083-.037a6.517,6.517,0,0,0-.807-.3,3.379,3.379,0,0,0-.918-.106,2.225,2.225,0,0,0-1.338.361,1.1,1.1,0,0,0-.477.941,1.179,1.179,0,0,0,.234.738,2.315,2.315,0,0,0,.675.577c.3.176.744.406,1.325.68a8.987,8.987,0,0,1,1.3.711,2.551,2.551,0,0,1,.736.77,2.057,2.057,0,0,1,.257,1.049,1.949,1.949,0,0,1-.359,1.149,2.3,2.3,0,0,1-1.038.784,4.109,4.109,0,0,1-1.57.276,5.455,5.455,0,0,1-1.194-.149,4.255,4.255,0,0,1-1.077-.375h0l-.066-.038.237-.763.1.049a4.821,4.821,0,0,0,.912.328,4.174,4.174,0,0,0,1.077.138,2.59,2.59,0,0,0,1.543-.4,1.178,1.178,0,0,0,.53-1,1.2,1.2,0,0,0-.234-.744,2.345,2.345,0,0,0-.693-.593,10.348,10.348,0,0,0-1.279-.619c-1.531-.648-2.306-1.513-2.306-2.568a1.851,1.851,0,0,1,.34-1.081,2.3,2.3,0,0,1,.945-.766A3.369,3.369,0,0,1,145.4,71.956Zm-34.457,0a4.616,4.616,0,0,1,1.131.137,4.851,4.851,0,0,1,.966.35h0l.083.042-.346.737-.084-.035a6.384,6.384,0,0,0-.807-.3,3.349,3.349,0,0,0-.916-.108,2.219,2.219,0,0,0-1.34.363,1.1,1.1,0,0,0-.477.94,1.2,1.2,0,0,0,.232.74,2.326,2.326,0,0,0,.678.575c.3.177.743.406,1.324.68a9.134,9.134,0,0,1,1.3.712,2.5,2.5,0,0,1,.736.769,2.052,2.052,0,0,1,.257,1.049,1.941,1.941,0,0,1-.361,1.148,2.3,2.3,0,0,1-1.038.784,4.106,4.106,0,0,1-1.569.276,5.485,5.485,0,0,1-1.195-.149,4.2,4.2,0,0,1-1.074-.375h0l-.066-.037.236-.763.1.047a4.625,4.625,0,0,0,.912.33A4.2,4.2,0,0,0,110.7,80a2.587,2.587,0,0,0,1.541-.4,1.172,1.172,0,0,0,.53-1,1.212,1.212,0,0,0-.232-.745,2.347,2.347,0,0,0-.7-.593,10.272,10.272,0,0,0-1.274-.619c-1.533-.648-2.311-1.513-2.311-2.568A1.866,1.866,0,0,1,108.6,73a2.322,2.322,0,0,1,.949-.766A3.374,3.374,0,0,1,110.945,71.957Zm-29.238,0a3.609,3.609,0,0,1,1,.126,5.01,5.01,0,0,1,.89.36h0l.082.042-.349.741-.367-.182a2.841,2.841,0,0,0-.484-.184,2.921,2.921,0,0,0-.769-.081,1.392,1.392,0,0,0-.736.194,1.377,1.377,0,0,0-.491.5,1.307,1.307,0,0,0-.172.653,1.763,1.763,0,0,0,.133.7,1.958,1.958,0,0,0,.374.567c.168.18.427.438.774.767h0L84.067,78.5a5.552,5.552,0,0,0,.508-2.094h0l.01-.126.74.291,0,.065a5.789,5.789,0,0,1-.586,2.46h0l1.02.947-.461.652-1.022-.923a3.43,3.43,0,0,1-2.663,1.037,4.22,4.22,0,0,1-1.632-.324,2.6,2.6,0,0,1-1.147-.946,2.67,2.67,0,0,1-.42-1.513,3.23,3.23,0,0,1,.4-1.537,2.954,2.954,0,0,1,.937-1.034A2.324,2.324,0,0,1,79.4,74.2a2.378,2.378,0,0,1,.274-1.126,2.042,2.042,0,0,1,.794-.82A2.43,2.43,0,0,1,81.707,71.956Zm-13.246,0a4.64,4.64,0,0,1,1.13.138,4.729,4.729,0,0,1,.965.349h0l.083.041-.347.738-.083-.037a6.615,6.615,0,0,0-.807-.3,3.381,3.381,0,0,0-.918-.106,2.227,2.227,0,0,0-1.338.361,1.1,1.1,0,0,0-.476.941,1.179,1.179,0,0,0,.234.738,2.315,2.315,0,0,0,.675.577c.3.176.744.406,1.325.68a8.973,8.973,0,0,1,1.3.711,2.544,2.544,0,0,1,.737.77A2.057,2.057,0,0,1,71.2,78.6a1.95,1.95,0,0,1-.359,1.149,2.306,2.306,0,0,1-1.038.784,4.108,4.108,0,0,1-1.57.276,5.449,5.449,0,0,1-1.194-.149,4.256,4.256,0,0,1-1.077-.375h0l-.066-.038.239-.763.1.049a4.821,4.821,0,0,0,.912.328A4.174,4.174,0,0,0,68.215,80a2.59,2.59,0,0,0,1.543-.4,1.179,1.179,0,0,0,.531-1,1.2,1.2,0,0,0-.235-.744,2.355,2.355,0,0,0-.693-.593,10.371,10.371,0,0,0-1.28-.619c-1.53-.648-2.3-1.513-2.3-2.568A1.856,1.856,0,0,1,66.116,73a2.3,2.3,0,0,1,.946-.766A3.363,3.363,0,0,1,68.461,71.956Zm-19.841.2.081.784H45.817v7.718h-.956V72.936H41.986v-.784Zm7.422,0,.082.736h-4V75.93H55.05l.082.736H52.124v3.19h3.9l.1.8H51.18v-8.5Zm3.626,0v7.7h3.966l.08.8h-4.99v-8.5Zm35.421,0a3.866,3.866,0,0,1,2.248.579,2.153,2.153,0,0,1,.841,1.886,2.262,2.262,0,0,1-1.452,2.223h0l2.179,3.815H97.836L95.87,77.1a8.1,8.1,0,0,1-.915.056H93.787v3.5h-.944v-8.5Zm45.678,0,.079.784h-2.883v7.718h-.955V72.936h-2.875v-.784Zm-11.834,0a3.862,3.862,0,0,1,2.247.579,2.156,2.156,0,0,1,.842,1.886,2.263,2.263,0,0,1-1.452,2.223h0l2.18,3.815h-1.072L129.713,77.1a8.1,8.1,0,0,1-.915.056h-1.168v3.5h-.942v-8.5Zm-22.744,0,.082.736h-4V75.93H105.2l.082.736h-3.009v3.19h3.9l.1.8h-4.943v-8.5ZM24.4,72.082v3.875h3.937v-3.8h.945v8.5h-.945v-3.9H24.4v3.9h-.941V72.159ZM80.262,76.09a1.662,1.662,0,0,0-.643.721,2.852,2.852,0,0,0-.266,1.2,1.869,1.869,0,0,0,.311,1.1,1.967,1.967,0,0,0,.83.664,2.8,2.8,0,0,0,1.114.226,2.547,2.547,0,0,0,2.013-.83h0Zm39.6-3.264a2.7,2.7,0,0,0-1.543.461,3.11,3.11,0,0,0-1.069,1.285,4.609,4.609,0,0,0-.012,3.682,3.094,3.094,0,0,0,1.032,1.26,2.56,2.56,0,0,0,1.484.454,2.685,2.685,0,0,0,1.542-.463,3.121,3.121,0,0,0,1.072-1.283,4.408,4.408,0,0,0,.386-1.868,4.278,4.278,0,0,0-.377-1.826,3.046,3.046,0,0,0-1.031-1.255A2.582,2.582,0,0,0,119.86,72.826Zm-83.662,0a2.7,2.7,0,0,0-1.543.461,3.108,3.108,0,0,0-1.069,1.285,4.6,4.6,0,0,0-.013,3.682,3.119,3.119,0,0,0,1.032,1.26,2.569,2.569,0,0,0,1.484.454,2.68,2.68,0,0,0,1.542-.463A3.113,3.113,0,0,0,38.7,78.222a4.373,4.373,0,0,0,.388-1.868,4.29,4.29,0,0,0-.378-1.826,3.046,3.046,0,0,0-1.031-1.255A2.584,2.584,0,0,0,36.2,72.826Zm92.758.159h-1.326v3.362h1.191a2.983,2.983,0,0,0,1.632-.4,1.767,1.767,0,0,0,.083-2.6,2.86,2.86,0,0,0-1.58-.363Zm-33.843,0H93.787v3.362h1.192a2.979,2.979,0,0,0,1.631-.4,1.765,1.765,0,0,0,.083-2.6,2.86,2.86,0,0,0-1.58-.363Zm15.7-27.723a9.012,9.012,0,0,1,9.256,9.13h0v.05a9.283,9.283,0,0,1-18.564.05h0v-.05A9.1,9.1,0,0,1,110.814,45.262Zm66.316,13.61a2.34,2.34,0,0,1,.923.183,2.46,2.46,0,0,1,.755.488,2.323,2.323,0,0,1,.511.727,2.169,2.169,0,0,1,.187.893,2.137,2.137,0,0,1-.187.889,2.345,2.345,0,0,1-.511.721,2.451,2.451,0,0,1-3.355,0,2.293,2.293,0,0,1-.511-.721,2.137,2.137,0,0,1-.187-.889,2.169,2.169,0,0,1,.187-.893,2.272,2.272,0,0,1,.511-.727,2.441,2.441,0,0,1,.755-.488A2.331,2.331,0,0,1,177.13,58.872ZM7,45.566c4.134,0,6.746,2.36,6.746,5.935h0v.05c0,3.982-3.2,6.061-7.1,6.061H3.118v5.706H0V45.566Zm18-.127,7.811,17.878h-3.3l-1.8-4.286H19.321l-1.827,4.286H14.3L22.111,45.44Zm19.426.126a7.155,7.155,0,0,1,5.123,1.776,5.367,5.367,0,0,1,1.469,3.829h0v.049A5.326,5.326,0,0,1,46.785,56.6h0l4.791,6.72H47.9l-4.363-6.187h-3.9v6.187H36.513V45.566Zm117.842,0V60.477H171.6v2.841H159.148V45.566Zm-103.642,0v8.927l8.446-8.927H70.9L63.522,53.2l7.707,10.117H67.453L61.389,55.33l-2.764,2.839v5.149H55.508V45.566Zm32.586,0a7.162,7.162,0,0,1,5.123,1.775,5.376,5.376,0,0,1,1.472,3.83h0v.05A5.329,5.329,0,0,1,93.571,56.6h0l4.792,6.72H94.687L90.323,57.13h-3.9v6.188H83.3V45.566Zm33.623,0,4.971,7.862,5.02-7.862H138.4l-7.046,10.677v7.076h-3.144v-7l-7.05-10.752Zm22.8-.127,7.811,17.878h-3.3l-1.8-4.286h-8.393l-1.824,4.286h-3.2l7.809-17.878Zm29.5,13.787a2.023,2.023,0,0,0-.78.15,2,2,0,0,0-.636.414,1.912,1.912,0,0,0-.427.615,1.856,1.856,0,0,0-.156.756,1.827,1.827,0,0,0,.156.747,1.981,1.981,0,0,0,1.063,1.04,2.1,2.1,0,0,0,1.563,0,1.971,1.971,0,0,0,.636-.419,2.025,2.025,0,0,0,.427-.621,1.826,1.826,0,0,0,.155-.747,1.855,1.855,0,0,0-.155-.756,1.963,1.963,0,0,0-.427-.615,2,2,0,0,0-.636-.414A2.027,2.027,0,0,0,177.13,59.227Zm.012.635a1.73,1.73,0,0,1,.364.04,1,1,0,0,1,.316.132.711.711,0,0,1,.226.232.69.69,0,0,1,.083.354.64.64,0,0,1-.167.458.79.79,0,0,1-.315.2l-.133.037.719,1.13h-.585l-.625-1.08h-.343v1.08h-.48V59.862Zm-.022.394h-.436v.736h.385a1.037,1.037,0,0,0,.4-.076.3.3,0,0,0,.186-.307.276.276,0,0,0-.17-.283A.943.943,0,0,0,177.12,60.255ZM110.76,48.129a6,6,0,0,0-5.981,6.263h0v.05a6.082,6.082,0,0,0,6.034,6.315,6,6,0,0,0,5.984-6.265h0v-.05A6.083,6.083,0,0,0,110.76,48.129ZM23.5,49.167l-3.041,7.1h6.111Zm122.634,0-3.043,7.1h6.109Zm-139.4-.76H3.118V54.8H6.743c2.359,0,3.83-1.318,3.83-3.17h0v-.05c0-2.08-1.5-3.17-3.83-3.17Zm37.43,0H39.635v5.958H44.2c2.232,0,3.652-1.165,3.652-2.967h0v-.05c0-1.9-1.368-2.941-3.675-2.941Zm46.785,0H86.418v5.958h4.566c2.23,0,3.65-1.165,3.65-2.967h0v-.05c0-1.9-1.37-2.942-3.675-2.942ZM85.8.825a47.4,47.4,0,0,1,44.213,30.46h0a1.975,1.975,0,0,1,.142.744,1.925,1.925,0,0,1-3.713.716h0a43.453,43.453,0,0,0-81.2-.154,1.939,1.939,0,0,1-3.792-.58,1.866,1.866,0,0,1,.1-.6h0a.255.255,0,0,1,.023-.075c.014-.044.037-.089.054-.13A47.391,47.391,0,0,1,85.8.825Z" transform="translate(0)" fill="#4a4a4a" clip-rule="evenodd"></path>
    </clipPath>
    <linearGradient id="linear-gradient" x1="0.937" y1="0.062" x2="-0.058" y2="1.681" gradientUnits="objectBoundingBox">
      <stop offset="0.084" stop-color="#c84f73"></stop>
      <stop offset="0.203" stop-color="#bf4c75"></stop>
      <stop offset="0.426" stop-color="#a5477a"></stop>
      <stop offset="0.725" stop-color="#7f4082"></stop>
      <stop offset="1" stop-color="#533a89"></stop>
    </linearGradient>
  </defs>
  <g id="Page-1" transform="translate(0 -0.825)">
    <g id="Enmascarar_grupo_47" data-name="Enmascarar grupo 47" clip-path="url(#clip-path)">
      <g id="Logo_Park_Royal_Hotels_Resorts" data-name="Logo Park Royal Hotels &amp; Resorts" transform="translate(-8.43 -15.279)">
        <g id="Grupo_38702" data-name="Grupo 38702">
          <g id="Grupo_38700" data-name="Grupo 38700">
            <path id="Trazado_54" data-name="Trazado 54" d="M36.772,91.234H32.835V87.361l-.942.077v8.493h.942v-3.9h3.937v3.9h.944v-8.5h-.944Z" fill="#7a7e81"></path>
            <path id="Trazado_55" data-name="Trazado 55" d="M46.638,87.8a3.735,3.735,0,0,0-2.025-.564,3.866,3.866,0,0,0-2.048.614,4.051,4.051,0,0,0-1.419,1.6,5.309,5.309,0,0,0-.014,4.523,3.825,3.825,0,0,0,1.4,1.566,3.713,3.713,0,0,0,2.013.564,3.824,3.824,0,0,0,2.056-.6,4.037,4.037,0,0,0,1.427-1.609,5.336,5.336,0,0,0,.012-4.53,3.869,3.869,0,0,0-1.4-1.562m.881,3.834a4.369,4.369,0,0,1-.388,1.868,3.123,3.123,0,0,1-1.071,1.285,2.68,2.68,0,0,1-1.542.461,2.568,2.568,0,0,1-1.484-.453A3.105,3.105,0,0,1,42,93.532a4.609,4.609,0,0,1,.012-3.683,3.119,3.119,0,0,1,1.069-1.285,2.7,2.7,0,0,1,1.542-.461,2.588,2.588,0,0,1,1.482.447,3.036,3.036,0,0,1,1.031,1.255,4.248,4.248,0,0,1,.38,1.827" fill="#7a7e81"></path>
            <path id="Trazado_56" data-name="Trazado 56" d="M50.415,87.43v.784H53.29v7.719h.956V88.214H57.13l-.081-.784Z" fill="#7a7e81"></path>
            <path id="Trazado_57" data-name="Trazado 57" d="M60.554,95.135V91.945h3.006l-.081-.736H60.554V88.166h4l-.081-.736H59.61v8.5h4.944l-.1-.8Z" fill="#7a7e81"></path>
            <path id="Trazado_58" data-name="Trazado 58" d="M68.1,95.135V87.43h-.944v8.5h4.99l-.079-.8Z" fill="#7a7e81"></path>
            <path id="Trazado_59" data-name="Trazado 59" d="M93.75,91.917l0-.065-.74-.291-.01.125a5.551,5.551,0,0,1-.509,2.094l-2.478-2.337c-.346-.329-.606-.586-.774-.768a1.948,1.948,0,0,1-.372-.566,1.745,1.745,0,0,1-.135-.7,1.327,1.327,0,0,1,.172-.653,1.357,1.357,0,0,1,.491-.5,1.4,1.4,0,0,1,.736-.194,2.938,2.938,0,0,1,.77.081,2.742,2.742,0,0,1,.485.184l.368.182.348-.742-.081-.042a5,5,0,0,0-.891-.36,3.6,3.6,0,0,0-1-.127,2.429,2.429,0,0,0-1.239.3,2.039,2.039,0,0,0-.794.819,2.368,2.368,0,0,0-.273,1.126,2.327,2.327,0,0,0,.34,1.257,2.951,2.951,0,0,0-.936,1.033,3.23,3.23,0,0,0-.4,1.538,2.67,2.67,0,0,0,.42,1.512,2.582,2.582,0,0,0,1.148.944,4.218,4.218,0,0,0,1.631.325A3.432,3.432,0,0,0,92.7,95.05l1.023.924.461-.651-1.021-.948a5.807,5.807,0,0,0,.586-2.458m-1.7,2.524a2.543,2.543,0,0,1-2.013.829,2.766,2.766,0,0,1-1.112-.226,1.944,1.944,0,0,1-.829-.665,1.856,1.856,0,0,1-.313-1.095,2.878,2.878,0,0,1,.265-1.2,1.66,1.66,0,0,1,.643-.72Z" fill="#7a7e81"></path>
            <path id="Trazado_60" data-name="Trazado 60" d="M106.6,89.9a2.151,2.151,0,0,0-.841-1.886,3.875,3.875,0,0,0-2.248-.58h-2.244v8.5h.942v-3.5h1.168a8.408,8.408,0,0,0,.916-.055l1.965,3.553h1.071l-2.179-3.814A2.26,2.26,0,0,0,106.6,89.9m-.954.022a1.453,1.453,0,0,1-.612,1.306,2.983,2.983,0,0,1-1.631.4h-1.193V88.263h1.326a2.871,2.871,0,0,1,1.581.364,1.441,1.441,0,0,1,.528,1.29" fill="#7a7e81"></path>
            <path id="Trazado_61" data-name="Trazado 61" d="M110.7,95.135V91.945h3.008l-.081-.736H110.7V88.166h4l-.081-.736h-4.859v8.5H114.7l-.1-.8Z" fill="#7a7e81"></path>
            <path id="Trazado_62" data-name="Trazado 62" d="M121.116,92.063a9.038,9.038,0,0,0-1.3-.711c-.582-.275-1.027-.5-1.324-.681a2.31,2.31,0,0,1-.677-.576,1.186,1.186,0,0,1-.232-.738,1.094,1.094,0,0,1,.477-.94,2.225,2.225,0,0,1,1.34-.362,3.346,3.346,0,0,1,.916.107,6.3,6.3,0,0,1,.806.3l.083.036.346-.738-.081-.042a4.915,4.915,0,0,0-.966-.35,4.627,4.627,0,0,0-1.13-.137,3.344,3.344,0,0,0-1.4.277,2.327,2.327,0,0,0-.95.766,1.862,1.862,0,0,0-.34,1.081c0,1.055.778,1.92,2.31,2.567a10.205,10.205,0,0,1,1.275.619,2.377,2.377,0,0,1,.7.594,1.226,1.226,0,0,1,.232.746,1.176,1.176,0,0,1-.53,1,2.591,2.591,0,0,1-1.542.4,4.271,4.271,0,0,1-1.077-.137,4.611,4.611,0,0,1-.91-.331l-.1-.048-.238.764.065.036a4.187,4.187,0,0,0,1.075.376,5.5,5.5,0,0,0,1.2.148,4.123,4.123,0,0,0,1.568-.275,2.3,2.3,0,0,0,1.039-.784,1.939,1.939,0,0,0,.36-1.148,2.045,2.045,0,0,0-.257-1.049,2.454,2.454,0,0,0-.736-.774" fill="#7a7e81"></path>
            <path id="Trazado_63" data-name="Trazado 63" d="M130.3,87.8a3.741,3.741,0,0,0-2.027-.564,3.866,3.866,0,0,0-2.048.614,4.066,4.066,0,0,0-1.419,1.6,5.318,5.318,0,0,0-.012,4.523,3.835,3.835,0,0,0,1.4,1.566,3.72,3.72,0,0,0,2.015.564,3.817,3.817,0,0,0,2.054-.6,4.038,4.038,0,0,0,1.427-1.609,5.326,5.326,0,0,0,.01-4.53,3.846,3.846,0,0,0-1.4-1.562m.881,3.834a4.4,4.4,0,0,1-.386,1.868,3.138,3.138,0,0,1-1.071,1.285,2.686,2.686,0,0,1-1.544.461,2.549,2.549,0,0,1-1.482-.453,3.09,3.09,0,0,1-1.031-1.261,4.271,4.271,0,0,1-.378-1.827,4.34,4.34,0,0,1,.388-1.857,3.119,3.119,0,0,1,1.069-1.285,2.7,2.7,0,0,1,1.544-.461,2.587,2.587,0,0,1,1.482.447,3.036,3.036,0,0,1,1.031,1.255,4.278,4.278,0,0,1,.378,1.827" fill="#7a7e81"></path>
            <path id="Trazado_64" data-name="Trazado 64" d="M140.449,89.9a2.155,2.155,0,0,0-.841-1.886,3.875,3.875,0,0,0-2.248-.58h-2.244v8.5h.942v-3.5h1.168a8.379,8.379,0,0,0,.916-.055l1.965,3.553h1.071L139,92.119a2.268,2.268,0,0,0,1.451-2.223m-.958.022a1.449,1.449,0,0,1-.612,1.306,2.99,2.99,0,0,1-1.633.4h-1.19V88.263h1.326a2.866,2.866,0,0,1,1.581.364,1.441,1.441,0,0,1,.526,1.29" fill="#7a7e81"></path>
            <path id="Trazado_65" data-name="Trazado 65" d="M142.559,87.43v.784h2.876v7.719h.956V88.214h2.882l-.079-.784Z" fill="#7a7e81"></path>
            <path id="Trazado_66" data-name="Trazado 66" d="M156.307,92.833a2.53,2.53,0,0,0-.736-.77,8.826,8.826,0,0,0-1.3-.711c-.58-.275-1.027-.5-1.324-.681a2.3,2.3,0,0,1-.675-.576,1.183,1.183,0,0,1-.234-.738,1.107,1.107,0,0,1,.475-.942,2.226,2.226,0,0,1,1.338-.36,3.341,3.341,0,0,1,.918.107,6.166,6.166,0,0,1,.806.3l.083.036.346-.738-.081-.042a4.749,4.749,0,0,0-.966-.348,4.639,4.639,0,0,0-1.13-.139,3.357,3.357,0,0,0-1.4.277,2.3,2.3,0,0,0-.946.766,1.848,1.848,0,0,0-.34,1.081c0,1.055.774,1.918,2.306,2.567a10.53,10.53,0,0,1,1.281.618,2.366,2.366,0,0,1,.695.594,1.219,1.219,0,0,1,.234.746,1.178,1.178,0,0,1-.53,1,2.588,2.588,0,0,1-1.544.4,4.184,4.184,0,0,1-1.077-.139,4.744,4.744,0,0,1-.91-.329l-.1-.049-.239.764.065.038a4.209,4.209,0,0,0,1.077.374,5.462,5.462,0,0,0,1.193.15,4.109,4.109,0,0,0,1.57-.277,2.316,2.316,0,0,0,1.037-.784,1.939,1.939,0,0,0,.36-1.148,2.067,2.067,0,0,0-.255-1.047" fill="#7a7e81"></path>
            <path id="Trazado_67" data-name="Trazado 67" d="M79.367,92.833a2.53,2.53,0,0,0-.736-.77,8.826,8.826,0,0,0-1.3-.711c-.58-.275-1.027-.5-1.324-.681a2.3,2.3,0,0,1-.675-.576,1.183,1.183,0,0,1-.234-.738,1.107,1.107,0,0,1,.475-.942,2.226,2.226,0,0,1,1.338-.36,3.341,3.341,0,0,1,.918.107,6.166,6.166,0,0,1,.806.3l.083.036.346-.738-.081-.042a4.75,4.75,0,0,0-.966-.348,4.639,4.639,0,0,0-1.13-.139,3.357,3.357,0,0,0-1.4.277,2.3,2.3,0,0,0-.946.766,1.848,1.848,0,0,0-.34,1.081c0,1.055.774,1.918,2.306,2.567a10.53,10.53,0,0,1,1.281.618,2.367,2.367,0,0,1,.695.594,1.219,1.219,0,0,1,.234.746,1.178,1.178,0,0,1-.53,1,2.588,2.588,0,0,1-1.544.4,4.184,4.184,0,0,1-1.077-.139,4.744,4.744,0,0,1-.91-.329l-.1-.049-.239.764.065.038a4.209,4.209,0,0,0,1.077.374,5.463,5.463,0,0,0,1.193.15,4.109,4.109,0,0,0,1.57-.277,2.316,2.316,0,0,0,1.037-.784,1.952,1.952,0,0,0,.36-1.148,2.027,2.027,0,0,0-.255-1.047" fill="#7a7e81"></path>
          </g>
          <g id="Grupo_38701" data-name="Grupo 38701">
            <path id="Trazado_68" data-name="Trazado 68" d="M8.429,60.845h7c4.135,0,6.745,2.359,6.745,5.934v.049c0,3.98-3.194,6.06-7.1,6.06H11.549v5.7H8.429Zm6.745,9.231c2.359,0,3.83-1.318,3.83-3.169v-.051c0-2.078-1.5-3.169-3.83-3.169H11.549v6.389h3.626Z" fill="#7a7e81"></path>
            <path id="Trazado_69" data-name="Trazado 69" d="M30.541,60.718h2.89l7.812,17.876h-3.3l-1.8-4.285H27.755l-1.827,4.285H22.733ZM35,71.547l-3.07-7.1-3.04,7.1Z" fill="#7a7e81"></path>
            <path id="Trazado_70" data-name="Trazado 70" d="M44.942,60.845h7.913a7.149,7.149,0,0,1,5.122,1.775,5.365,5.365,0,0,1,1.469,3.83V66.5a5.324,5.324,0,0,1-4.234,5.376L60,78.595H56.329l-4.362-6.187h-3.9v6.187H44.942Zm7.683,8.8c2.233,0,3.654-1.166,3.654-2.967v-.049c0-1.9-1.368-2.941-3.675-2.941H48.065v5.959h4.56Z" fill="#7a7e81"></path>
            <path id="Trazado_71" data-name="Trazado 71" d="M63.937,60.845h3.117v8.926L75.5,60.845h3.828L71.95,68.479l7.707,10.116H75.881l-6.062-7.988-2.765,2.84v5.148H63.937V60.845Z" fill="#7a7e81"></path>
            <path id="Trazado_72" data-name="Trazado 72" d="M91.729,60.845H99.64a7.149,7.149,0,0,1,5.122,1.775,5.375,5.375,0,0,1,1.471,3.83V66.5A5.326,5.326,0,0,1,102,71.875l4.792,6.719h-3.675l-4.364-6.187h-3.9v6.187H91.727V60.845Zm7.683,8.8c2.231,0,3.65-1.166,3.65-2.967v-.049c0-1.9-1.37-2.941-3.675-2.941h-4.54v5.959h4.566Z" fill="#7a7e81"></path>
            <path id="Trazado_73" data-name="Trazado 73" d="M109.934,69.771v-.049A9.282,9.282,0,0,1,128.5,69.67v.051a9.282,9.282,0,0,1-18.563.049Zm15.291,0v-.049a6.082,6.082,0,0,0-6.037-6.314,6,6,0,0,0-5.981,6.262v.051a6.081,6.081,0,0,0,6.033,6.316A6,6,0,0,0,125.225,69.771Z" fill="#7a7e81"></path>
            <path id="Trazado_74" data-name="Trazado 74" d="M136.635,71.6l-7.048-10.751h3.675l4.97,7.861,5.021-7.861h3.572L139.78,71.521v7.074h-3.145Z" fill="#7a7e81"></path>
            <path id="Trazado_75" data-name="Trazado 75" d="M153.17,60.718h2.892l7.812,17.876h-3.3l-1.8-4.285h-8.392l-1.825,4.285h-3.194Zm4.463,10.828-3.068-7.1-3.042,7.1Z" fill="#7a7e81"></path>
            <path id="Trazado_76" data-name="Trazado 76" d="M167.574,60.845h3.119V75.757h9.332V78.6H167.574Z" fill="#7a7e81"></path>
          </g>
          <path id="Trazado_77" data-name="Trazado 77" d="M50.054,46.482c-.018.042-.04.087-.055.131-.01.026-.02.049-.03.073l.006,0a1.9,1.9,0,0,0-.1.6,1.939,1.939,0,0,0,3.792.578,43.444,43.444,0,0,1,81.191.16l.012,0a1.925,1.925,0,0,0,3.713-.716,1.888,1.888,0,0,0-.146-.742h0a47.311,47.311,0,0,0-88.384-.085" fill="url(#linear-gradient)"></path>
        </g>
        <path id="Trazado_78" data-name="Trazado 78" d="M183.183,76.441a2.162,2.162,0,0,1,.188-.893,2.276,2.276,0,0,1,.511-.726,2.45,2.45,0,0,1,.756-.489,2.427,2.427,0,0,1,1.845,0,2.486,2.486,0,0,1,.756.489,2.276,2.276,0,0,1,.511.726,2.162,2.162,0,0,1,.188.893,2.137,2.137,0,0,1-.188.889,2.273,2.273,0,0,1-.511.72,2.4,2.4,0,0,1-.756.485,2.5,2.5,0,0,1-1.845,0,2.37,2.37,0,0,1-.756-.485,2.3,2.3,0,0,1-.511-.72A2.106,2.106,0,0,1,183.183,76.441Zm.374,0a1.808,1.808,0,0,0,.156.746,2.016,2.016,0,0,0,.428.619,1.964,1.964,0,0,0,.635.42,2.107,2.107,0,0,0,1.564,0,1.933,1.933,0,0,0,.635-.42,2.016,2.016,0,0,0,.428-.619,1.815,1.815,0,0,0,.156-.746,1.834,1.834,0,0,0-.156-.756,1.953,1.953,0,0,0-.428-.616,2.05,2.05,0,0,0-2.834,0,1.953,1.953,0,0,0-.428.616A1.867,1.867,0,0,0,183.557,76.441Zm1.075-1.3h.938a1.7,1.7,0,0,1,.364.04,1.039,1.039,0,0,1,.319.131.714.714,0,0,1,.224.232.688.688,0,0,1,.083.352.645.645,0,0,1-.166.459.858.858,0,0,1-.447.238l.718,1.13h-.584l-.625-1.079h-.344v1.079h-.479Zm.863,1.13a1.067,1.067,0,0,0,.4-.075.3.3,0,0,0,.188-.307.277.277,0,0,0-.172-.283.928.928,0,0,0-.36-.071h-.437v.736h.386Z" fill="#7a7e81"></path>
      </g>
    </g>
  </g>
</svg>
</g>
</g>
</svg>